<?xml version="1.0" encoding="utf-8"?>
<svg version="1.1" xmlns:xlink="http://www.w3.org/1999/xlink" width="38px" height="36px" xmlns="http://www.w3.org/2000/svg">
  <defs>
    <mask fill="white" id="clip1">
      <path d="M 14.0561570962105 11.2565678126016  C 14.0561570962105 11.2565678126016  17.3574541961503 1.18316655777164  17.3574541961503 1.18316655777164  C 17.8744575650308 -0.394389124752514  20.1255442364488 -0.394388716509563  20.6425474509168 1.18316706807533  C 20.6425474509168 1.18316706807533  23.9438445508565 11.2565678126016  23.9438445508565 11.2565678126016  C 24.1750554159486 11.9620722056133  24.8381760949983 12.4397350847984  25.5863903547063 12.4397350847984  C 25.5863903547063 12.4397350847984  36.2696144658254 12.4397350847984  36.2696144658254 12.4397350847984  C 37.9426722888432 12.4397350847984  38.6382966256278 14.5623223576157  37.2847644481801 15.5373054223373  C 37.2847644481801 15.5373054223373  28.6418528220803 21.7630104306981  28.6418528220803 21.7630104306981  C 28.0365348528697 22.1990361009695  27.7832477825602 22.9719091540589  28.0144586476522 23.6774134960402  C 28.0144586476522 23.6774134960402  31.315754100525 33.7508132199591  31.315754100525 33.7508132199591  C 31.832757314993 35.3283689024833  30.0115921388353 36.6402008809339  28.6580599613875 35.665217918273  C 28.6580599613875 35.665217918273  20.0151499823547 29.4395161758558  20.0151499823547 29.4395161758558  C 19.409832064615 29.0034906076451  18.5901696339229 29.0034906076451  17.9848516647123 29.4395161758558  C 17.9848516647123 29.4395161758558  9.34194086214595 35.665217918273  9.34194086214595 35.665217918273  C 7.98840858175655 36.6402008809339  6.16724211882774 35.3283689024833  6.68424548770824 33.7508132199591  C 6.68424548770824 33.7508132199591  9.98554382294827 23.6774134960402  9.98554382294827 23.6774134960402  C 10.2167547652466 22.9719091030285  9.96346525007202 22.1990361009695  9.35814717791973 21.7630104306981  C 9.35814717791973 21.7630104306981  0.715236272411706 15.5373054223373  0.715236272411706 15.5373054223373  C -0.638295905036011 14.5623223576157  0.0573275052734318 12.4397350847984  1.73038532829123 12.4397350847984  C 1.73038532829123 12.4397350847984  12.4136104688272 12.4397350847984  12.4136104688272 12.4397350847984  C 13.1618246255935 12.4397350847984  13.8249461796476 11.9620721545829  14.0561570962105 11.2565678126016  Z " fill-rule="evenodd" />
    </mask>
  </defs>
  <g transform="matrix(1 0 0 1 -243 -5475 )">
    <path d="M 14.0561570962105 11.2565678126016  C 14.0561570962105 11.2565678126016  17.3574541961503 1.18316655777164  17.3574541961503 1.18316655777164  C 17.8744575650308 -0.394389124752514  20.1255442364488 -0.394388716509563  20.6425474509168 1.18316706807533  C 20.6425474509168 1.18316706807533  23.9438445508565 11.2565678126016  23.9438445508565 11.2565678126016  C 24.1750554159486 11.9620722056133  24.8381760949983 12.4397350847984  25.5863903547063 12.4397350847984  C 25.5863903547063 12.4397350847984  36.2696144658254 12.4397350847984  36.2696144658254 12.4397350847984  C 37.9426722888432 12.4397350847984  38.6382966256278 14.5623223576157  37.2847644481801 15.5373054223373  C 37.2847644481801 15.5373054223373  28.6418528220803 21.7630104306981  28.6418528220803 21.7630104306981  C 28.0365348528697 22.1990361009695  27.7832477825602 22.9719091540589  28.0144586476522 23.6774134960402  C 28.0144586476522 23.6774134960402  31.315754100525 33.7508132199591  31.315754100525 33.7508132199591  C 31.832757314993 35.3283689024833  30.0115921388353 36.6402008809339  28.6580599613875 35.665217918273  C 28.6580599613875 35.665217918273  20.0151499823547 29.4395161758558  20.0151499823547 29.4395161758558  C 19.409832064615 29.0034906076451  18.5901696339229 29.0034906076451  17.9848516647123 29.4395161758558  C 17.9848516647123 29.4395161758558  9.34194086214595 35.665217918273  9.34194086214595 35.665217918273  C 7.98840858175655 36.6402008809339  6.16724211882774 35.3283689024833  6.68424548770824 33.7508132199591  C 6.68424548770824 33.7508132199591  9.98554382294827 23.6774134960402  9.98554382294827 23.6774134960402  C 10.2167547652466 22.9719091030285  9.96346525007202 22.1990361009695  9.35814717791973 21.7630104306981  C 9.35814717791973 21.7630104306981  0.715236272411706 15.5373054223373  0.715236272411706 15.5373054223373  C -0.638295905036011 14.5623223576157  0.0573275052734318 12.4397350847984  1.73038532829123 12.4397350847984  C 1.73038532829123 12.4397350847984  12.4136104688272 12.4397350847984  12.4136104688272 12.4397350847984  C 13.1618246255935 12.4397350847984  13.8249461796476 11.9620721545829  14.0561570962105 11.2565678126016  Z " fill-rule="nonzero" fill="#ffffff" stroke="none" fill-opacity="0" transform="matrix(1 0 0 1 243 5475 )" />
    <path d="M 14.0561570962105 11.2565678126016  C 14.0561570962105 11.2565678126016  17.3574541961503 1.18316655777164  17.3574541961503 1.18316655777164  C 17.8744575650308 -0.394389124752514  20.1255442364488 -0.394388716509563  20.6425474509168 1.18316706807533  C 20.6425474509168 1.18316706807533  23.9438445508565 11.2565678126016  23.9438445508565 11.2565678126016  C 24.1750554159486 11.9620722056133  24.8381760949983 12.4397350847984  25.5863903547063 12.4397350847984  C 25.5863903547063 12.4397350847984  36.2696144658254 12.4397350847984  36.2696144658254 12.4397350847984  C 37.9426722888432 12.4397350847984  38.6382966256278 14.5623223576157  37.2847644481801 15.5373054223373  C 37.2847644481801 15.5373054223373  28.6418528220803 21.7630104306981  28.6418528220803 21.7630104306981  C 28.0365348528697 22.1990361009695  27.7832477825602 22.9719091540589  28.0144586476522 23.6774134960402  C 28.0144586476522 23.6774134960402  31.315754100525 33.7508132199591  31.315754100525 33.7508132199591  C 31.832757314993 35.3283689024833  30.0115921388353 36.6402008809339  28.6580599613875 35.665217918273  C 28.6580599613875 35.665217918273  20.0151499823547 29.4395161758558  20.0151499823547 29.4395161758558  C 19.409832064615 29.0034906076451  18.5901696339229 29.0034906076451  17.9848516647123 29.4395161758558  C 17.9848516647123 29.4395161758558  9.34194086214595 35.665217918273  9.34194086214595 35.665217918273  C 7.98840858175655 36.6402008809339  6.16724211882774 35.3283689024833  6.68424548770824 33.7508132199591  C 6.68424548770824 33.7508132199591  9.98554382294827 23.6774134960402  9.98554382294827 23.6774134960402  C 10.2167547652466 22.9719091030285  9.96346525007202 22.1990361009695  9.35814717791973 21.7630104306981  C 9.35814717791973 21.7630104306981  0.715236272411706 15.5373054223373  0.715236272411706 15.5373054223373  C -0.638295905036011 14.5623223576157  0.0573275052734318 12.4397350847984  1.73038532829123 12.4397350847984  C 1.73038532829123 12.4397350847984  12.4136104688272 12.4397350847984  12.4136104688272 12.4397350847984  C 13.1618246255935 12.4397350847984  13.8249461796476 11.9620721545829  14.0561570962105 11.2565678126016  Z " stroke-width="6" stroke="#008040" fill="none" transform="matrix(1 0 0 1 243 5475 )" mask="url(#clip1)" />
  </g>
</svg>