<svg width="7" height="28" viewBox="0 0 7 28" fill="none" xmlns="http://www.w3.org/2000/svg">
<path fill-rule="evenodd" clip-rule="evenodd" d="M3.57292 1.0002C4.2184 1.04729 4.83583 1.27787 5.3495 1.66367C5.86317 2.04946 6.25074 2.5737 6.46473 3.1721C6.67872 3.77051 6.7098 4.41709 6.55417 5.03255C6.39854 5.64801 6.06298 6.2056 5.5886 6.63698C5.11422 7.06835 4.52165 7.35476 3.88355 7.46107C3.24544 7.56739 2.58951 7.48899 1.99621 7.2355C1.40292 6.98201 0.898057 6.56445 0.54347 6.034C0.188883 5.50354 3.15013e-08 4.88325 9.2714e-10 4.24919C0.0353563 3.35469 0.431283 2.5104 1.10102 1.90138C1.77076 1.29236 2.65968 0.968294 3.57292 1.0002ZM3.57292 10.7492C4.21862 10.7961 4.83632 11.0266 5.35028 11.4123C5.86424 11.7981 6.25213 12.3223 6.46638 12.9209C6.68063 13.5194 6.71192 14.1662 6.55644 14.7819C6.40096 15.3976 6.06546 15.9555 5.59106 16.3871C5.11667 16.8188 4.524 17.1054 3.88573 17.212C3.24745 17.3185 2.5913 17.2403 1.99774 16.9869C1.40418 16.7335 0.899012 16.3159 0.544156 15.7854C0.1893 15.2549 0.000183394 14.6345 9.2714e-10 14.0002C0.035359 13.1056 0.431252 12.2612 1.10096 11.652C1.77067 11.0429 2.65958 10.7186 3.57292 10.7502V10.7492ZM3.57292 20.4982C4.21866 20.5451 4.83639 20.7756 5.35037 21.1614C5.86435 21.5472 6.25226 22.0715 6.46647 22.6701C6.68069 23.2687 6.71191 23.9155 6.55635 24.5312C6.40079 25.147 6.06519 25.7048 5.59069 26.1364C5.11619 26.5681 4.52341 26.8547 3.88507 26.9611C3.24673 27.0675 2.59059 26.9891 1.99706 26.7356C1.40352 26.482 0.898392 26.0643 0.543657 25.5337C0.188923 25.003 -1.52824e-05 24.3825 9.2714e-10 23.7482C0.0358852 22.854 0.432027 22.0101 1.10168 21.4013C1.77133 20.7926 2.65992 20.4686 3.57292 20.5002V20.4982Z" fill="#008040"/>
</svg>
