<svg width="14" height="22" viewBox="0 0 14 22" fill="none" xmlns="http://www.w3.org/2000/svg">
<path d="M11.7686 0H1.96143C1.44123 0 0.942328 0.20665 0.574489 0.574489C0.20665 0.942328 0 1.44123 0 1.96143V19.6143C0 20.1345 0.20665 20.6334 0.574489 21.0012C0.942328 21.3691 1.44123 21.5757 1.96143 21.5757H11.7686C12.2888 21.5757 12.7877 21.3691 13.1555 21.0012C13.5233 20.6334 13.73 20.1345 13.73 19.6143V1.96143C13.73 1.44123 13.5233 0.942328 13.1555 0.574489C12.7877 0.20665 12.2888 0 11.7686 0ZM11.7686 17.6529H1.96143V3.92286H11.7686V17.6529ZM10.7879 11.7686H7.84571V6.865H5.88429V11.7686H2.94214L6.865 15.6914L10.7879 11.7686Z" fill="#171C1C"/>
</svg>
