<?xml version="1.0" encoding="utf-8"?>
<!-- Generator: Adobe Illustrator 16.0.0, SVG Export Plug-In . SVG Version: 6.00 Build 0)  -->
<!DOCTYPE svg PUBLIC "-//W3C//DTD SVG 1.1//EN" "http://www.w3.org/Graphics/SVG/1.1/DTD/svg11.dtd">
<svg version="1.1" id="Layer_1" xmlns="http://www.w3.org/2000/svg" xmlns:xlink="http://www.w3.org/1999/xlink" x="0px" y="0px"
	 width="30px" height="30px" viewBox="0 0 1009.19 1007.19" enable-background="new 0 0 1009.19 1007.19"
	 xml:space="preserve">
<g>
	<defs>
		<rect id="SVGID_1_" y="0.002" width="1009.195" height="1007.188"/>
	</defs>
	<clipPath id="SVGID_2_">
		<use xlink:href="#SVGID_1_"  overflow="visible"/>
	</clipPath>
	<path clip-path="url(#SVGID_2_)" fill="none" stroke="#FFFFFF" stroke-width="50" stroke-miterlimit="10" d="M783.631,166.615
		H226.036c-25.041,0-45.34,20.299-45.34,45.339v557.595c0,25.041,20.299,45.339,45.34,45.339h557.595
		c25.04,0,45.339-20.298,45.339-45.339V211.954C828.97,186.914,808.671,166.615,783.631,166.615z"/>
	
		<line clip-path="url(#SVGID_2_)" fill="none" stroke="#FFFFFF" stroke-width="50" stroke-miterlimit="10" x1="253.25" y1="840.577" x2="360.846" y2="840.577"/>
	
		<line clip-path="url(#SVGID_2_)" fill="none" stroke="#FFFFFF" stroke-width="50" stroke-miterlimit="10" x1="647.058" y1="840.577" x2="755.26" y2="840.577"/>
	<path clip-path="url(#SVGID_2_)" fill="#FFFFFF" d="M570.077,409.351c11.29,0,21.904,4.396,29.888,12.38
		c16.479,16.48,16.479,43.297,0,59.777l-95.132,95.132l-95.132-95.132c-16.48-16.48-16.48-43.297,0-59.777
		c7.983-7.984,18.598-12.38,29.889-12.38c11.29,0,21.904,4.396,29.887,12.38l35.355,35.356l35.355-35.356
		C548.172,413.747,558.787,409.351,570.077,409.351 M570.077,359.351c-23.614,0-47.229,9.008-65.244,27.025
		c-18.017-18.017-41.63-27.025-65.243-27.025c-23.614,0-47.228,9.008-65.244,27.025c-36.034,36.034-36.034,94.454,0,130.488
		L504.833,647.35l130.486-130.486c36.033-36.034,36.033-94.454,0-130.488C617.305,368.358,593.689,359.351,570.077,359.351"/>
	
		<line clip-path="url(#SVGID_2_)" fill="none" stroke="#FFFFFF" stroke-width="50" stroke-linecap="round" stroke-linejoin="round" stroke-miterlimit="10" x1="738.122" y1="359.351" x2="828.97" y2="359.351"/>
	
		<line clip-path="url(#SVGID_2_)" fill="none" stroke="#FFFFFF" stroke-width="50" stroke-linecap="round" stroke-linejoin="round" stroke-miterlimit="10" x1="738.122" y1="647.35" x2="828.97" y2="647.35"/>
</g>
</svg>
