<?xml version="1.0" encoding="utf-8"?>
<!-- Generator: Adobe Illustrator 16.0.0, SVG Export Plug-In . SVG Version: 6.00 Build 0)  -->
<!DOCTYPE svg PUBLIC "-//W3C//DTD SVG 1.1//EN" "http://www.w3.org/Graphics/SVG/1.1/DTD/svg11.dtd">
<svg version="1.1" id="Layer_1" xmlns="http://www.w3.org/2000/svg" xmlns:xlink="http://www.w3.org/1999/xlink" x="0px" y="0px"
	 width="30px" height="30px" viewBox="0 0 1009.19 1007.19" enable-background="new 0 0 1009.19 1007.19"
	 xml:space="preserve">
<g>
	<defs>
		<rect id="SVGID_1_" y="0.002" width="1009.195" height="1007.188"/>
	</defs>
	<clipPath id="SVGID_2_">
		<use xlink:href="#SVGID_1_"  overflow="visible"/>
	</clipPath>
	<path clip-path="url(#SVGID_2_)" fill="none" stroke="#FFFFFF" stroke-width="50" stroke-miterlimit="10" d="M793.148,402.622
		c17.347,39.983,27.002,84.077,27.1,130.414c0.379,180.137-144.927,327.912-325.046,330.418
		c-184.263,2.564-334.438-146.035-334.438-329.709c0-181.804,147.132-329.243,328.82-329.741c0.507-0.001,0.922,0.413,0.922,0.921
		v327.42c0,0.66,0.678,1.104,1.284,0.839l300.146-131.038C792.401,401.943,792.946,402.156,793.148,402.622z"/>
	<path clip-path="url(#SVGID_2_)" fill="#FFFFFF" d="M854.5,279.638C802.771,175.735,697.829,102.981,575.352,97.051
		c-8.834-0.428-16.213,6.675-16.213,15.521v313.831L846.81,300.811C854.957,297.252,858.462,287.596,854.5,279.638"/>
</g>
</svg>
