<?xml version="1.0" encoding="utf-8"?>
<!-- Generator: Adobe Illustrator 16.0.0, SVG Export Plug-In . SVG Version: 6.00 Build 0)  -->
<!DOCTYPE svg PUBLIC "-//W3C//DTD SVG 1.1//EN" "http://www.w3.org/Graphics/SVG/1.1/DTD/svg11.dtd">
<svg version="1.1" id="Layer_1" xmlns="http://www.w3.org/2000/svg" xmlns:xlink="http://www.w3.org/1999/xlink" x="0px" y="0px"
	 width="30px" height="30px" viewBox="0 0 1009.19 1007.19" enable-background="new 0 0 1009.19 1007.19"
	 xml:space="preserve">
<g>
	<defs>
		<rect id="SVGID_1_" y="0.002" width="1009.195" height="1007.188"/>
	</defs>
	<clipPath id="SVGID_2_">
		<use xlink:href="#SVGID_1_"  overflow="visible"/>
	</clipPath>
	<path clip-path="url(#SVGID_2_)" fill="#FFFFFF" d="M688.869,576.106c0-29.486-23.903-53.392-53.392-53.392
		c-29.487,0-53.391,23.905-53.391,53.392c0,29.487,23.903,53.393,53.391,53.393C664.966,629.499,688.869,605.593,688.869,576.106"/>
	<path clip-path="url(#SVGID_2_)" fill="#FFFFFF" d="M766.475,576.106c0-29.486-23.904-53.392-53.393-53.392
		c-29.486,0-53.391,23.905-53.391,53.392c0,29.487,23.904,53.393,53.391,53.393C742.57,629.499,766.475,605.593,766.475,576.106"/>
	<path clip-path="url(#SVGID_2_)" fill="none" stroke="#FFFFFF" stroke-width="50" stroke-miterlimit="10" d="M834.501,720.163
		H177.294c-17.169,0-31.088-13.919-31.088-31.089V318.438c0-17.169,13.919-31.087,31.088-31.087h657.207
		c17.17,0,31.088,13.918,31.088,31.087v370.636C865.589,706.244,851.671,720.163,834.501,720.163z"/>
</g>
</svg>
