<?xml version="1.0" encoding="utf-8"?>
<!-- Generator: Adobe Illustrator 16.0.0, SVG Export Plug-In . SVG Version: 6.00 Build 0)  -->
<!DOCTYPE svg PUBLIC "-//W3C//DTD SVG 1.1//EN" "http://www.w3.org/Graphics/SVG/1.1/DTD/svg11.dtd">
<svg version="1.1" id="Layer_1" xmlns="http://www.w3.org/2000/svg" xmlns:xlink="http://www.w3.org/1999/xlink" x="0px" y="0px"
	 width="30px" height="30px" viewBox="0 0 1009.19 1007.19" enable-background="new 0 0 1009.19 1007.19"
	 xml:space="preserve">
<g>
	<defs>
		<rect id="SVGID_1_" y="0.002" width="1009.195" height="1007.188"/>
	</defs>
	<clipPath id="SVGID_2_">
		<use xlink:href="#SVGID_1_"  overflow="visible"/>
	</clipPath>
	
		<path clip-path="url(#SVGID_2_)" fill="none" stroke="#FFFFFF" stroke-width="50" stroke-linecap="round" stroke-linejoin="round" stroke-miterlimit="10" d="
		M228.579,275.625C177.453,337.577,146.74,417,146.74,503.597c0,197.933,160.457,358.39,358.391,358.39
		c197.935,0,358.392-160.457,358.392-358.39c0-197.935-160.457-358.392-358.392-358.392c-59.26,0-115.16,14.383-164.401,39.848"/>
	<path clip-path="url(#SVGID_2_)" fill="#FFFFFF" d="M511.931,426.469v54.521H386.114c-1.306,7.322-1.987,14.871-1.989,22.606
		c0.001,8.048,0.75,15.887,2.16,23.483h125.646V581.6H410.699c13.376,17.327,31.109,31.152,51.492,39.769
		c15.276,6.456,32.018,10.029,49.74,10.033c11.822-0.001,23.201-1.596,34.008-4.568c10.806-2.973,21.036-7.332,30.506-12.882
		c18.938-11.096,34.81-26.979,45.892-45.926l47.058,27.532c-11.866,20.277-27.511,38.029-45.989,52.325
		c-18.476,14.293-39.807,25.136-62.998,31.518c-15.457,4.255-31.737,6.522-48.476,6.521c-18.822,0.002-37.062-2.866-54.208-8.201
		c-17.15-5.334-33.208-13.127-47.752-22.952c-26.979-18.232-48.78-43.468-62.859-73.168h-60.477v-54.521h44.474
		c-0.992-7.698-1.506-15.538-1.505-23.483c-0.001-7.644,0.48-15.189,1.399-22.606h-44.368v-54.521h60.074
		c4.054-8.67,8.743-16.979,14.05-24.832c19.654-29.085,47.439-52.167,80.193-66.027c21.829-9.238,45.88-14.343,70.979-14.339
		c16.844-0.002,33.226,2.295,48.771,6.602c15.547,4.308,30.26,10.621,43.829,18.634c27.136,16.03,49.714,38.84,65.465,66.163
		l-47.238,27.223c-8.273-14.359-19.284-26.987-32.299-37.139c-13.018-10.153-28.018-17.824-44.313-22.339
		c-10.868-3.009-22.316-4.623-34.215-4.624c-13.294,0.001-26.029,2.015-38.016,5.741c-11.984,3.728-23.218,9.176-33.423,16.07
		c-11.671,7.883-21.971,17.662-30.468,28.867H511.931z"/>
</g>
</svg>
