<svg width="30" height="30" viewBox="0 0 30 30" fill="none" xmlns="http://www.w3.org/2000/svg">
<path d="M26.2208 14.6759C26.0396 14.6759 25.8584 14.6105 25.7108 14.4758L14.9998 4.72245L4.28876 14.4758C3.96356 14.7715 3.47277 14.735 3.19077 14.3953C2.90878 14.0544 2.94357 13.5398 3.26757 13.2441L14.1574 3.32838C14.6374 2.89054 15.3622 2.89054 15.8422 3.32838L26.732 13.2441C27.0572 13.5398 27.0908 14.0556 26.8088 14.3953C26.6552 14.5803 26.438 14.6759 26.2208 14.6759Z" fill="#FCFCFD"/>
<path d="M6.05811 25.6883C6.05811 25.8673 6.09411 26.0426 6.15891 26.1995C6.25731 26.4361 6.41931 26.6347 6.62331 26.7757C6.72531 26.8468 6.83931 26.9032 6.96052 26.9412C7.08172 26.9792 7.21132 27.0001 7.34212 27.0001H12.7566V18.0382H12.4746L12.7338 18.1497C12.7482 18.1154 12.7566 18.0749 12.7566 18.0382H12.4746L12.7338 18.1497L12.4758 18.0382L12.6318 18.2748C12.6762 18.2441 12.711 18.2012 12.7326 18.1497L12.4746 18.0382L12.6306 18.2748L12.4722 18.0357L12.5562 18.3116C12.5838 18.303 12.6078 18.2907 12.6306 18.2748L12.4722 18.0357L12.5562 18.3116L12.4734 18.0382V18.325C12.501 18.325 12.5298 18.3201 12.5562 18.3116L12.4734 18.0382V18.325H17.4678V18.0369L17.3586 18.3017C17.3922 18.3165 17.4318 18.325 17.4678 18.325V18.0369L17.3586 18.3017L17.4678 18.0382L17.2362 18.1975C17.2662 18.2429 17.3082 18.2784 17.3586 18.3005L17.4678 18.0369L17.2362 18.1963L17.4702 18.0345L17.2002 18.1203C17.2086 18.1485 17.2206 18.173 17.2362 18.1963L17.4702 18.0345L17.2002 18.1203L17.4678 18.0357H17.187C17.187 18.0639 17.1918 18.0933 17.2002 18.1203L17.4678 18.0357H17.187V26.9976H22.6543C22.8295 26.9976 22.9999 26.9609 23.1547 26.8947C23.3863 26.7941 23.5807 26.6286 23.7187 26.4202C23.7883 26.316 23.8435 26.1995 23.8807 26.0757C23.9179 25.9519 23.9383 25.8195 23.9383 25.6858V14.3418L22.3807 13.0043V25.6883H22.6531L22.4023 25.5792C22.3879 25.6135 22.3807 25.6515 22.3807 25.6883H22.6531L22.4023 25.5792L22.6519 25.6871L22.5007 25.4578C22.4575 25.4872 22.4239 25.5289 22.4023 25.5792L22.6519 25.6871L22.5007 25.4578L22.6543 25.6895L22.5727 25.4222C22.5463 25.4308 22.5223 25.4431 22.5007 25.4578L22.6543 25.6895L22.5727 25.4222L22.6531 25.6871V25.4088C22.6267 25.4088 22.5991 25.4124 22.5727 25.421L22.6531 25.6858V25.4075H18.7434V18.0357C18.7434 17.8579 18.7074 17.6838 18.6426 17.5281C18.5454 17.2928 18.3846 17.0954 18.1806 16.9556C18.0786 16.8857 17.9658 16.8293 17.8458 16.7913C17.7258 16.7533 17.5974 16.7325 17.4666 16.7325H12.477C12.303 16.7325 12.1326 16.7693 11.9802 16.8355C11.7498 16.9348 11.5566 17.0991 11.4198 17.3075C11.3514 17.4117 11.2962 17.5269 11.259 17.6495C11.2218 17.7721 11.2014 17.9033 11.2014 18.0369V25.4088H7.34212V25.6871L7.44772 25.4308C7.41532 25.4161 7.37692 25.4088 7.34212 25.4088V25.6871L7.44772 25.4308L7.34212 25.6858L7.56652 25.5314C7.53772 25.4872 7.49692 25.4529 7.44772 25.4321L7.34212 25.6871L7.56652 25.5326L7.33972 25.6895L7.60132 25.6061C7.59292 25.5792 7.58092 25.5547 7.56652 25.5326L7.33972 25.6895L7.60132 25.6061L7.34212 25.6883H7.61452C7.61452 25.6613 7.61092 25.6331 7.60252 25.6061L7.34332 25.6883H7.61572V13.0043L6.05811 14.3418" fill="#FCFCFD"/>
</svg>
