<svg width="162" height="40" viewBox="0 0 162 40" fill="none" xmlns="http://www.w3.org/2000/svg">
<path d="M40.224 14.008H56.408V17.032H50.052V34H46.552V17.032H40.224V14.008ZM55.8073 19.524H58.8033V22.324H58.8593C58.9527 21.932 59.13 21.5493 59.3913 21.176C59.6713 20.8027 59.998 20.4667 60.3713 20.168C60.7633 19.8507 61.1927 19.5987 61.6593 19.412C62.126 19.2253 62.602 19.132 63.0873 19.132C63.4607 19.132 63.7127 19.1413 63.8433 19.16C63.9927 19.1787 64.142 19.1973 64.2913 19.216V22.296C64.0673 22.2587 63.834 22.2307 63.5913 22.212C63.3673 22.1747 63.1433 22.156 62.9193 22.156C62.378 22.156 61.8647 22.268 61.3793 22.492C60.9127 22.6973 60.502 23.0147 60.1473 23.444C59.7927 23.8547 59.5127 24.368 59.3073 24.984C59.102 25.6 58.9993 26.3093 58.9993 27.112V34H55.8073V19.524ZM78.4631 34H75.3271V31.984H75.2711C74.8791 32.712 74.2911 33.3 73.5071 33.748C72.7418 34.1773 71.9578 34.392 71.1551 34.392C69.2511 34.392 67.8698 33.9253 67.0111 32.992C66.1711 32.04 65.7511 30.612 65.7511 28.708V19.524H68.9431V28.4C68.9431 29.6693 69.1858 30.5653 69.6711 31.088C70.1564 31.6107 70.8378 31.872 71.7151 31.872C72.3871 31.872 72.9471 31.7693 73.3951 31.564C73.8431 31.3587 74.2071 31.088 74.4871 30.752C74.7671 30.3973 74.9631 29.9773 75.0751 29.492C75.2058 29.0067 75.2711 28.484 75.2711 27.924V19.524H78.4631V34ZM84.3372 29.352C84.4306 30.2853 84.7852 30.9387 85.4012 31.312C86.0172 31.6853 86.7546 31.872 87.6132 31.872C87.9119 31.872 88.2479 31.8533 88.6212 31.816C89.0132 31.76 89.3772 31.6667 89.7132 31.536C90.0492 31.4053 90.3199 31.2187 90.5252 30.976C90.7492 30.7147 90.8519 30.3787 90.8332 29.968C90.8146 29.5573 90.6652 29.2213 90.3852 28.96C90.1052 28.6987 89.7412 28.4933 89.2932 28.344C88.8639 28.176 88.3692 28.036 87.8092 27.924C87.2492 27.812 86.6799 27.6907 86.1012 27.56C85.5039 27.4293 84.9252 27.2707 84.3652 27.084C83.8239 26.8973 83.3292 26.6453 82.8812 26.328C82.4519 26.0107 82.1066 25.6093 81.8452 25.124C81.5839 24.62 81.4532 24.004 81.4532 23.276C81.4532 22.492 81.6399 21.8387 82.0132 21.316C82.4052 20.7747 82.8906 20.3453 83.4692 20.028C84.0666 19.692 84.7199 19.4587 85.4292 19.328C86.1572 19.1973 86.8479 19.132 87.5012 19.132C88.2479 19.132 88.9572 19.216 89.6292 19.384C90.3199 19.5333 90.9359 19.7853 91.4772 20.14C92.0372 20.4947 92.4946 20.9613 92.8492 21.54C93.2226 22.1 93.4559 22.7813 93.5492 23.584H90.2172C90.0679 22.8187 89.7132 22.3053 89.1532 22.044C88.6119 21.7827 87.9866 21.652 87.2772 21.652C87.0532 21.652 86.7826 21.6707 86.4652 21.708C86.1666 21.7453 85.8772 21.82 85.5972 21.932C85.3359 22.0253 85.1119 22.1747 84.9252 22.38C84.7386 22.5667 84.6452 22.8187 84.6452 23.136C84.6452 23.528 84.7759 23.8453 85.0372 24.088C85.3172 24.3307 85.6719 24.536 86.1012 24.704C86.5492 24.8533 87.0532 24.984 87.6132 25.096C88.1732 25.208 88.7519 25.3293 89.3492 25.46C89.9279 25.5907 90.4972 25.7493 91.0572 25.936C91.6172 26.1227 92.1119 26.3747 92.5412 26.692C92.9892 27.0093 93.3439 27.4107 93.6052 27.896C93.8852 28.3813 94.0252 28.9787 94.0252 29.688C94.0252 30.5467 93.8292 31.2747 93.4372 31.872C93.0452 32.4693 92.5319 32.9547 91.8972 33.328C91.2812 33.7013 90.5906 33.972 89.8252 34.14C89.0599 34.308 88.3039 34.392 87.5572 34.392C86.6426 34.392 85.7932 34.2893 85.0092 34.084C84.2439 33.8787 83.5719 33.5707 82.9932 33.16C82.4332 32.7307 81.9852 32.208 81.6492 31.592C81.3319 30.9573 81.1639 30.2107 81.1452 29.352H84.3372ZM95.0928 19.524H97.5008V15.184H100.693V19.524H103.577V21.904H100.693V29.632C100.693 29.968 100.702 30.2573 100.721 30.5C100.758 30.7427 100.823 30.948 100.917 31.116C101.029 31.284 101.187 31.4147 101.393 31.508C101.598 31.5827 101.878 31.62 102.233 31.62C102.457 31.62 102.681 31.62 102.905 31.62C103.129 31.6013 103.353 31.564 103.577 31.508V33.972C103.222 34.0093 102.877 34.0467 102.541 34.084C102.205 34.1213 101.859 34.14 101.505 34.14C100.665 34.14 99.9834 34.0653 99.4608 33.916C98.9568 33.748 98.5554 33.5147 98.2568 33.216C97.9768 32.8987 97.7808 32.5067 97.6688 32.04C97.5754 31.5733 97.5194 31.0413 97.5008 30.444V21.904H95.0928V19.524ZM106.057 19.524H109.081V21.484H109.137C109.585 20.644 110.21 20.0467 111.013 19.692C111.816 19.3187 112.684 19.132 113.617 19.132C114.756 19.132 115.745 19.3373 116.585 19.748C117.444 20.14 118.153 20.6907 118.713 21.4C119.273 22.0907 119.693 22.9027 119.973 23.836C120.253 24.7693 120.393 25.768 120.393 26.832C120.393 27.8027 120.262 28.7453 120.001 29.66C119.758 30.5747 119.376 31.3867 118.853 32.096C118.349 32.7867 117.705 33.3467 116.921 33.776C116.137 34.1867 115.213 34.392 114.149 34.392C113.682 34.392 113.216 34.3453 112.749 34.252C112.282 34.1773 111.834 34.0467 111.405 33.86C110.976 33.6733 110.574 33.44 110.201 33.16C109.846 32.8613 109.548 32.516 109.305 32.124H109.249V39.348H106.057V19.524ZM117.201 26.776C117.201 26.1227 117.117 25.488 116.949 24.872C116.781 24.256 116.529 23.7147 116.193 23.248C115.857 22.7627 115.437 22.38 114.933 22.1C114.429 21.8013 113.85 21.652 113.197 21.652C111.853 21.652 110.836 22.1187 110.145 23.052C109.473 23.9853 109.137 25.2267 109.137 26.776C109.137 27.504 109.221 28.1853 109.389 28.82C109.576 29.436 109.846 29.968 110.201 30.416C110.556 30.864 110.976 31.2187 111.461 31.48C111.965 31.7413 112.544 31.872 113.197 31.872C113.925 31.872 114.541 31.7227 115.045 31.424C115.549 31.1253 115.96 30.7427 116.277 30.276C116.613 29.7907 116.846 29.2493 116.977 28.652C117.126 28.036 117.201 27.4107 117.201 26.776ZM123.274 14.008H126.466V17.032H123.274V14.008ZM123.274 19.524H126.466V34H123.274V19.524ZM130.128 14.008H133.32V34H130.128V14.008ZM143.534 34.392C142.377 34.392 141.341 34.2053 140.426 33.832C139.53 33.44 138.765 32.908 138.13 32.236C137.514 31.564 137.038 30.7613 136.702 29.828C136.385 28.8947 136.226 27.868 136.226 26.748C136.226 25.6467 136.385 24.6293 136.702 23.696C137.038 22.7627 137.514 21.96 138.13 21.288C138.765 20.616 139.53 20.0933 140.426 19.72C141.341 19.328 142.377 19.132 143.534 19.132C144.691 19.132 145.718 19.328 146.614 19.72C147.529 20.0933 148.294 20.616 148.91 21.288C149.545 21.96 150.021 22.7627 150.338 23.696C150.674 24.6293 150.842 25.6467 150.842 26.748C150.842 27.868 150.674 28.8947 150.338 29.828C150.021 30.7613 149.545 31.564 148.91 32.236C148.294 32.908 147.529 33.44 146.614 33.832C145.718 34.2053 144.691 34.392 143.534 34.392ZM143.534 31.872C144.243 31.872 144.859 31.7227 145.382 31.424C145.905 31.1253 146.334 30.7333 146.67 30.248C147.006 29.7627 147.249 29.2213 147.398 28.624C147.566 28.008 147.65 27.3827 147.65 26.748C147.65 26.132 147.566 25.516 147.398 24.9C147.249 24.284 147.006 23.7427 146.67 23.276C146.334 22.7907 145.905 22.3987 145.382 22.1C144.859 21.8013 144.243 21.652 143.534 21.652C142.825 21.652 142.209 21.8013 141.686 22.1C141.163 22.3987 140.734 22.7907 140.398 23.276C140.062 23.7427 139.81 24.284 139.642 24.9C139.493 25.516 139.418 26.132 139.418 26.748C139.418 27.3827 139.493 28.008 139.642 28.624C139.81 29.2213 140.062 29.7627 140.398 30.248C140.734 30.7333 141.163 31.1253 141.686 31.424C142.209 31.7227 142.825 31.872 143.534 31.872ZM152.14 19.524H154.548V15.184H157.74V19.524H160.624V21.904H157.74V29.632C157.74 29.968 157.749 30.2573 157.768 30.5C157.805 30.7427 157.87 30.948 157.964 31.116C158.076 31.284 158.234 31.4147 158.44 31.508C158.645 31.5827 158.925 31.62 159.28 31.62C159.504 31.62 159.728 31.62 159.952 31.62C160.176 31.6013 160.4 31.564 160.624 31.508V33.972C160.269 34.0093 159.924 34.0467 159.588 34.084C159.252 34.1213 158.906 34.14 158.552 34.14C157.712 34.14 157.03 34.0653 156.508 33.916C156.004 33.748 155.602 33.5147 155.304 33.216C155.024 32.8987 154.828 32.5067 154.716 32.04C154.622 31.5733 154.566 31.0413 154.548 30.444V21.904H152.14V19.524Z" fill="#171C1C"/>
<path d="M18.5 28.2154L26.5387 26.0629L29.8973 37L18.5 28.2154ZM37 14.0786H22.8497L18.5 0L14.1503 14.0786H0L11.4524 22.805L7.10267 36.8836L18.5551 28.1572L25.6027 22.805L37 14.0786Z" fill="#00B67A"/>
</svg>
