<?xml version="1.0" encoding="UTF-8" standalone="no"?>
<!DOCTYPE svg PUBLIC "-//W3C//DTD SVG 1.1//EN" "http://www.w3.org/Graphics/SVG/1.1/DTD/svg11.dtd">
<svg width="100%" height="100%" viewBox="0 0 830 180" version="1.1" xmlns="http://www.w3.org/2000/svg" xmlns:xlink="http://www.w3.org/1999/xlink" xml:space="preserve" xmlns:serif="http://www.serif.com/" style="fill-rule:evenodd;clip-rule:evenodd;stroke-linejoin:round;stroke-miterlimit:2;">
    <g transform="matrix(1,0,0,1,18.1496,4.96063)">
        <g id="Livello_1">
            <g>
                <path d="M106.733,101.899C106.853,101.859 106.963,101.819 107.083,101.769L106.733,101.899Z" style="fill:rgb(0,63,35);fill-rule:nonzero;"/>
                <path d="M72.573,83.529C75.543,62.9 93.623,47.09 115.252,47.86C136.502,48.62 154.102,65.82 155.312,87.049C156.692,111.079 137.552,131.089 113.802,131.129C108.053,131.139 102.573,129.979 97.583,127.869C97.583,127.869 97.583,127.859 97.573,127.859C96.043,127.009 94.703,129.339 97.533,130.279L97.563,130.279C102.593,132.289 108.063,133.409 113.802,133.399C138.992,133.359 159.202,112.109 157.552,86.569C156.112,64.32 137.672,46.42 115.392,45.6C92.403,44.75 73.253,61.58 70.273,83.539" style="fill:rgb(0,63,35);fill-rule:nonzero;"/>
                <path d="M77.163,83.519C80.203,64.8 97.243,50.71 117.192,52.52C134.472,54.09 148.622,67.889 150.592,85.129C153.152,107.499 135.672,126.549 113.792,126.589C107.963,126.599 102.463,125.219 97.553,122.829C96.033,121.989 94.773,124.229 97.583,125.359C103.393,127.979 109.923,129.279 116.812,128.739C137.342,127.119 153.472,109.349 153.102,88.759C152.712,67.34 135.162,50.06 113.662,50.1C94.003,50.13 77.743,64.66 74.863,83.529" style="fill:rgb(0,63,35);fill-rule:nonzero;"/>
                <path d="M81.753,83.509C84.763,67.38 99.633,55.37 116.972,57.06C132.062,58.53 144.372,70.609 146.092,85.669C148.332,105.299 132.992,122.029 113.792,122.059C107.883,122.069 102.343,120.469 97.553,117.709C96.153,116.869 94.683,119.159 97.553,120.309C103.953,123.679 111.503,125.149 119.462,123.859C134.752,121.379 146.752,108.649 148.382,93.249C150.592,72.319 134.152,54.6 113.672,54.63C96.523,54.66 82.293,67.16 79.453,83.509" style="fill:rgb(0,63,35);fill-rule:nonzero;"/>
                <path d="M86.353,83.469C89.303,70.019 101.923,60.14 116.552,61.58C130.182,62.92 141.042,74.359 141.732,88.039C142.542,104.129 129.702,117.499 113.772,117.529C107.723,117.539 102.123,115.599 97.533,112.339C96.223,111.439 94.553,113.649 97.533,115.069C102.683,118.339 108.873,120.129 115.502,119.749C130.862,118.859 143.392,106.119 144.012,90.739C144.712,73.429 130.822,59.15 113.672,59.18C99.043,59.21 86.843,69.659 84.053,83.479" style="fill:rgb(0,63,35);fill-rule:nonzero;"/>
                <path d="M103.923,83.439L103.903,83.439L39.633,83.549L69.513,39.38L69.543,58.41C69.543,59.32 70.743,59.64 71.203,58.85C73.793,54.41 79.433,46.46 88.233,44.82L88.423,44.8L88.423,43.36L88.373,18.55C88.363,11.65 82.753,6.06 75.853,6.08L75.803,6.08C71.663,6.08 67.793,8.14 65.473,11.57L17.193,82.969C16.453,84.069 15.823,85.259 15.473,86.539C13.183,94.959 19.473,102.549 27.523,102.539L69.623,102.449L69.663,123.689C69.663,128.229 72.723,132.409 77.183,133.289C83.263,134.499 88.593,129.869 88.583,124.009L88.543,102.449L103.573,102.419C108.133,102.419 112.323,99.349 113.202,94.869C114.412,88.769 109.783,83.419 103.923,83.429" style="fill:rgb(52,152,57);fill-rule:nonzero;"/>
                <path d="M430.99,99.889C415.41,99.919 402.71,87.259 402.68,71.679C402.65,56.1 415.3,43.4 430.89,43.37C446.47,43.34 459.17,56 459.2,71.579C459.23,87.159 446.57,99.859 430.99,99.889M430.91,54.26C421.33,54.28 413.55,62.09 413.57,71.659C413.59,81.239 421.39,89.019 430.97,88.999C440.55,88.979 448.33,81.179 448.31,71.599C448.29,62.02 440.49,54.24 430.91,54.26M775.838,91.049C777.958,88.919 777.958,85.479 775.828,83.349C773.698,81.229 770.248,81.229 768.128,83.359C761.368,90.139 750.348,90.159 743.558,83.399C736.778,76.639 736.758,65.62 743.518,58.83C746.788,55.54 751.148,53.73 755.788,53.72C760.428,53.72 764.798,55.51 768.078,58.79C770.208,60.91 773.658,60.91 775.778,58.78C777.898,56.65 777.898,53.21 775.768,51.08C770.418,45.75 763.318,42.82 755.768,42.84C748.218,42.85 741.128,45.81 735.798,51.15C724.798,62.19 724.828,80.109 735.868,91.109C741.388,96.609 748.628,99.349 755.868,99.339C763.108,99.329 770.338,96.559 775.838,91.039M338.991,71.819C339.021,87.399 351.421,100.049 366.641,100.029C373.181,100.019 378.921,97.649 383.35,93.739L383.35,94.559C383.35,97.569 385.8,99.999 388.8,99.989C391.81,99.989 394.24,97.539 394.23,94.539L394.11,23.86C394.11,20.85 391.66,18.42 388.66,18.43C385.65,18.43 383.22,20.88 383.23,23.88L383.28,49.75C378.841,45.85 373.101,43.51 366.551,43.52C351.331,43.55 338.971,56.24 339.001,71.829M349.881,71.799C349.861,62.22 357.351,54.42 366.561,54.4C375.781,54.38 383.29,62.17 383.31,71.739C383.33,81.319 375.841,89.119 366.621,89.139C357.401,89.159 349.891,81.379 349.871,71.799M545.169,65.13C545.119,53.02 535.239,43.19 523.119,43.21C516.51,43.22 510.6,46.17 506.57,50.8C502.52,46.18 496.6,43.25 489.99,43.26C477.86,43.28 468.01,53.16 468.02,65.28L468.02,65.31L468.07,94.369C468.07,97.379 470.52,99.809 473.52,99.799C476.53,99.799 478.96,97.349 478.95,94.349L478.9,65.3C478.89,59.15 483.87,54.15 490,54.14C496.13,54.13 501.13,59.11 501.14,65.25C501.15,71.389 501.19,94.309 501.19,94.309C501.19,97.319 503.64,99.749 506.64,99.739C509.65,99.739 512.08,97.289 512.07,94.289L512.02,65.23C512.02,59.09 516.99,54.1 523.119,54.09C529.249,54.08 534.249,59.06 534.259,65.2L534.259,65.22L534.309,94.259C534.309,97.269 536.759,99.699 539.759,99.689C542.769,99.689 545.199,97.239 545.189,94.239L545.139,65.18L545.139,65.12L545.169,65.13ZM718.528,93.939L718.448,48.31C718.448,45.3 715.998,42.87 712.998,42.88C709.988,42.88 707.558,45.33 707.568,48.33L707.648,93.959C707.648,96.969 710.098,99.399 713.098,99.389C716.108,99.389 718.538,96.939 718.528,93.939M712.948,17.86C709.078,17.86 705.948,21.01 705.958,24.88C705.958,28.75 709.108,31.88 712.978,31.87C716.848,31.87 719.978,28.72 719.968,24.85C719.968,20.98 716.818,17.85 712.948,17.86M661.628,82.839C661.608,71.229 649.529,68.449 640.999,66.48C631.319,64.24 627.879,62.8 627.869,59.19C627.869,56.15 631.679,53.7 637.669,53.69C642.279,53.69 646.799,54.87 651.109,57.22C653.678,58.62 656.898,57.68 658.308,55.11C659.708,52.54 658.768,49.32 656.188,47.92C650.299,44.7 644.059,43.08 637.649,43.09C626.579,43.11 616.849,50.28 616.859,59.22C616.879,71.889 629.609,74.739 638.609,76.819C647.069,78.779 650.609,80.439 650.619,83.179C650.619,87.689 644.609,88.899 639.449,88.909C633.629,88.919 629.299,87.469 623.459,83.569C621.029,81.949 617.729,82.599 616.109,85.039C614.479,87.469 615.139,90.769 617.569,92.389C625.169,97.459 631.509,99.529 639.469,99.509C654.518,99.479 661.638,91.369 661.618,82.839M692.748,88.539C686.618,88.549 682.168,83.569 682.158,77.439L682.118,53.89L693.418,53.87C696.158,53.87 698.378,51.64 698.368,48.9C698.368,46.16 696.138,43.94 693.398,43.95L682.098,43.97L682.078,31.83C682.078,28.82 679.628,26.39 676.628,26.4C673.618,26.4 671.188,28.85 671.198,31.85L671.278,77.459C671.298,89.599 680.638,99.449 692.768,99.429C695.778,99.429 698.208,96.979 698.198,93.979C698.198,90.969 695.748,88.539 692.748,88.549M608.379,68.989C608.349,53.46 594.479,43.06 581.539,43.08C566.009,43.11 553.389,55.76 553.419,71.299C553.449,87.479 565.799,99.659 582.159,99.629C590.829,99.609 597.309,96.489 600.369,94.649C601.819,93.799 603.029,92.059 603.029,90.099C603.029,87.609 601.009,85.239 598.049,85.249C597.189,85.249 596.129,85.579 595.279,85.999C591.929,87.869 587.409,89.899 582.139,89.909C573.719,89.919 566.309,84.849 564.569,76.429L601.569,76.369C605.209,76.369 608.389,72.919 608.379,68.999M564.539,66.5C565.909,58.38 573.439,52.6 581.549,52.59C590.179,52.57 596.819,59.89 598.069,66.44L564.549,66.5L564.539,66.5ZM265.991,94.729L265.911,49.1C265.911,46.09 263.461,43.66 260.461,43.67C257.451,43.67 255.021,46.12 255.031,49.12L255.111,94.749C255.111,97.759 257.561,100.189 260.561,100.179C263.571,100.179 266.001,97.729 265.991,94.729M330.761,70.119C330.571,55.44 318.571,43.57 303.861,43.6C289.041,43.63 277.011,55.7 277.031,70.519C277.051,85.339 277.071,94.719 277.071,94.719C277.071,97.729 279.521,100.159 282.521,100.149C285.531,100.149 287.961,97.699 287.951,94.699L287.911,70.499C287.911,61.68 295.061,54.5 303.871,54.49C312.681,54.47 319.871,61.63 319.881,70.449L319.881,70.599L319.941,94.649C319.941,97.659 322.391,100.089 325.391,100.079C328.401,100.079 330.831,97.629 330.821,94.629L330.781,70.429C330.781,70.329 330.751,70.229 330.751,70.129M260.421,18.65C256.551,18.65 253.421,21.8 253.431,25.67C253.431,29.54 256.581,32.67 260.451,32.66C264.321,32.66 267.451,29.51 267.441,25.64C267.441,21.77 264.291,18.64 260.421,18.65M227.582,108.579L192.432,108.639C189.702,108.639 187.482,110.859 187.492,113.599C187.492,116.339 189.722,118.549 192.452,118.539L227.602,118.479C230.332,118.479 232.552,116.259 232.542,113.519C232.542,110.789 230.312,108.569 227.582,108.579M215.362,67.629L215.412,94.829C215.412,97.829 212.992,100.269 209.982,100.269C206.982,100.269 204.542,97.849 204.542,94.839L204.462,49.18C204.442,44.97 205.362,40.7 207.332,36.68C210.642,29.91 216.392,24.84 223.512,22.4C230.642,19.96 238.292,20.45 245.052,23.77C247.751,25.1 248.861,28.35 247.541,31.05C246.222,33.74 242.972,34.86 240.272,33.53C236.112,31.49 231.412,31.19 227.032,32.69C222.652,34.19 219.112,37.3 217.082,41.46C215.872,43.93 215.302,46.56 215.322,49.15L215.322,57.71L236.842,57.67C239.572,57.67 241.792,59.88 241.802,62.61C241.802,65.34 239.592,67.559 236.862,67.569L215.352,67.609L215.362,67.629Z" style="fill:rgb(52,152,57);fill-rule:nonzero;"/>
                <path d="M777.558,164.009L731.068,164.089L730.978,117.599L777.478,117.519L777.558,164.009Z" style="fill:rgb(0,151,95);fill-rule:nonzero;"/>
                <path d="M767.288,129.779C764.408,131.479 763.508,131.619 760.418,133.479C762.218,131.519 762.848,130.669 763.968,129.049C761.098,129.189 756.918,129.539 753.938,130.209C756.538,128.829 761.678,127.279 764.408,126.899C763.768,126.019 758.648,123.269 757.408,122.759C761.438,123.059 766.388,124.549 768.778,126.009C769.718,125.709 770.698,125.699 772.418,125.549C771.988,126.319 771.988,126.759 770.258,127.889C770.748,129.159 769.628,136.159 768.678,138.039C768.638,135.099 768.358,131.399 767.288,129.799" style="fill:white;fill-rule:nonzero;"/>
                <path d="M746.328,154.949C744.658,154.339 743.478,153.629 742.178,152.409C742.568,151.329 743.008,150.479 743.738,149.409C742.388,149.599 741.408,149.759 740.248,149.989C739.288,148.319 738.868,146.759 738.378,144.549C738.138,146.879 738.038,148.559 738.378,150.419C737.338,150.699 736.578,150.979 735.718,151.369C736.928,152.119 737.928,152.699 739.288,153.299C740.038,154.889 740.788,155.959 742.018,157.169C741.718,156.139 741.648,155.309 741.758,154.229C743.298,154.669 744.608,154.899 746.338,154.949" style="fill:white;fill-rule:nonzero;"/>
                <path d="M750.578,131.639C750.058,132.289 749.458,133.549 749.288,134.109C753.558,134.689 756.978,136.879 756.978,136.879C753.238,136.209 751.268,136.299 749.908,136.429C748.508,136.559 748.248,136.749 748.248,136.749C747.258,138.929 746.648,142.689 746.648,142.689C745.968,141.089 744.988,137.809 744.988,137.809C743.108,138.819 738.808,142.879 738.808,142.879C741.168,138.119 743.568,135.949 743.568,135.949C742.758,135.119 740.578,134.719 738.988,134.629C739.808,134.279 741.938,133.899 743.548,133.839C745.158,133.769 746.158,133.869 746.158,133.869C747.598,132.729 749.798,131.759 750.558,131.639" style="fill:white;fill-rule:nonzero;"/>
                <path d="M755.098,151.979C754.358,153.009 753.708,153.819 752.888,154.749C751.448,155.139 750.298,155.289 748.928,155.299C749.778,155.719 750.618,155.989 751.488,156.169C750.618,156.999 749.848,157.589 748.978,158.129C750.438,157.759 752.378,157.139 753.768,156.309C754.508,156.329 755.198,156.279 755.718,156.179C755.598,155.749 755.508,155.429 755.388,154.869C756.728,153.819 757.698,152.879 758.808,151.749C757.628,152.589 756.608,153.189 755.248,153.839C755.168,153.219 755.138,152.689 755.098,151.969" style="fill:white;fill-rule:nonzero;"/>
                <path d="M422.11,143.659C422.04,145.339 421.93,148.869 421.88,150.899C420.05,151.839 417.18,152.379 414.4,152.379C408.08,152.389 404.04,148.439 404.03,143.549C404.03,138.399 408.24,134.499 415.16,134.489C416.74,134.489 419.1,134.739 420.78,135.149L419.56,138.499C418.38,137.759 416.44,137.179 415.11,137.179C411.13,137.179 409.72,140.719 409.72,143.569C409.72,148.329 412.29,149.869 415.16,149.869C415.52,149.869 416.61,149.819 416.96,149.729C416.96,147.679 416.92,145.069 416.76,143.669L422.12,143.669L422.11,143.659ZM425.45,134.909C425.71,136.659 425.74,140.129 425.74,142.999C425.74,146.389 425.7,149.419 425.42,151.919L431.09,151.919C430.81,149.339 430.8,144.459 430.8,142.989C430.8,141.849 430.83,139.349 430.91,137.259C431.3,137.239 432.36,137.239 432.94,137.239C434.2,137.239 436.78,137.889 436.79,140.139C436.79,142.489 434.68,143.639 432.25,143.319C434.29,146.329 436.34,149.869 437.42,151.899L443.5,151.899C442.68,150.999 438.53,145.659 438.02,144.769C440.48,143.789 442.06,142.269 442.05,140.169C442.05,136.209 437.59,134.889 433.86,134.899L425.43,134.899L425.45,134.909ZM511.5,152.249C516.77,152.249 520.739,148.599 520.729,143.269C520.729,137.899 516.74,134.299 511.47,134.309C506.17,134.309 502.19,137.929 502.2,143.299C502.2,148.629 506.2,152.259 511.5,152.249M511.47,136.499C513.91,136.499 515.42,138.879 515.43,143.279C515.43,147.669 513.93,150.029 511.49,150.029C509.03,150.029 507.47,147.679 507.46,143.299C507.46,138.909 509.01,136.509 511.47,136.509M445.42,134.869C445.61,136.069 445.67,138.649 445.68,140.249L445.68,146.449C445.7,151.279 448.72,152.329 453.65,152.319C459.08,152.319 461.83,150.589 461.82,146.689L461.82,141.869C461.81,139.119 461.8,136.349 461.98,134.849L457.29,134.849C457.41,135.599 457.45,135.779 457.45,137.509L457.45,145.759C457.47,149.229 455.61,149.979 453.71,149.989C451.54,149.989 450.83,148.699 450.82,146.499L450.82,138.389C450.8,137.189 450.85,136.019 450.94,134.869L445.42,134.869ZM465.43,134.829C465.66,136.449 465.74,140.479 465.74,142.919C465.74,145.659 465.68,149.509 465.46,151.839L471.06,151.839C470.9,150.219 470.92,147.359 470.8,144.989C471.09,145.009 472.12,145.009 472.51,145.009C478.9,144.999 482.07,143.269 482.06,139.789C482.06,135.839 477.59,134.809 473.9,134.809L465.43,134.829ZM472.29,137.159C474.22,137.159 476.76,137.549 476.77,139.799C476.77,142.119 474.3,142.619 472.5,142.619C471.92,142.619 471.04,142.619 470.85,142.589C470.83,141.989 470.78,141.349 470.78,140.539C470.78,139.439 470.84,138.309 470.84,137.179L472.29,137.159ZM484.01,134.799C484.24,136.419 484.32,140.449 484.32,142.889C484.32,145.629 484.26,149.479 484.04,151.809L489.64,151.809C489.48,150.189 489.5,147.329 489.38,144.959C489.67,144.979 490.7,144.979 491.09,144.979C497.48,144.969 500.65,143.239 500.64,139.759C500.64,135.809 496.17,134.769 492.48,134.779L484.01,134.779L484.01,134.799ZM490.87,137.129C492.81,137.129 495.34,137.519 495.35,139.769C495.35,142.089 492.88,142.589 491.08,142.589C490.5,142.589 489.62,142.589 489.43,142.559C489.41,141.959 489.36,141.319 489.36,140.509C489.36,139.409 489.42,138.279 489.42,137.149L490.87,137.129ZM529.689,134.719C529.919,136.929 529.959,140.489 529.959,142.809C529.959,146.349 529.909,149.529 529.679,151.729L538.939,151.709C542.969,151.709 547.259,150.509 547.249,146.969C547.249,144.959 545.709,143.409 543.009,142.439C545.039,141.749 546.399,140.299 546.389,138.739C546.389,135.819 542.939,134.689 539.779,134.689L529.679,134.709L529.689,134.719ZM537.209,136.859C539.659,136.859 541.149,137.529 541.149,139.189C541.149,140.719 539.539,141.349 538.339,141.349L537.309,141.349L536.309,143.939L537.739,143.939C540.109,143.939 541.889,144.849 541.899,146.799C541.899,148.569 540.529,149.429 537.629,149.429L535.169,149.429C535.029,146.999 535.029,145.869 535.019,142.809C535.019,140.289 535.059,139.209 535.149,136.989C535.559,136.919 536.379,136.869 537.209,136.859M561.379,134.669L561.399,144.549C561.279,144.169 561.169,143.949 560.889,143.509L555.439,134.679L550.239,134.679C550.359,136.619 550.459,141.169 550.459,142.779C550.459,144.249 550.449,149.129 550.159,151.699L554.749,151.699C554.559,150.239 554.499,147.319 554.499,145.259L554.499,139.869C554.639,140.689 555.019,141.439 555.559,142.199L562.009,151.679L566.019,151.679C565.789,149.349 565.749,144.289 565.749,142.749C565.749,141.069 565.839,136.599 565.989,134.659L561.389,134.659L561.379,134.669ZM569.929,134.649C570.159,136.269 570.229,140.299 570.239,142.739C570.239,145.479 570.189,149.329 569.959,151.659L575.549,151.659C575.389,150.039 575.419,147.179 575.299,144.809C575.579,144.829 576.609,144.829 576.999,144.829C583.399,144.819 586.559,143.089 586.559,139.609C586.559,135.659 582.099,134.619 578.399,134.629L569.939,134.629L569.929,134.649ZM576.789,136.979C578.709,136.979 581.259,137.369 581.269,139.619C581.269,141.939 578.789,142.439 576.989,142.439C576.419,142.439 575.529,142.439 575.339,142.409C575.329,141.809 575.289,141.159 575.289,140.359C575.289,139.259 575.329,138.129 575.329,136.999L576.799,136.979L576.789,136.979ZM595.689,134.599C595.919,136.219 595.979,140.249 595.979,142.689C595.979,145.429 595.929,149.279 595.709,151.609L601.309,151.609C601.139,149.989 601.169,147.129 601.029,144.759C601.319,144.779 602.369,144.779 602.739,144.779C609.149,144.769 612.299,143.039 612.289,139.559C612.289,135.609 607.829,134.569 604.129,134.579L595.679,134.579L595.689,134.599ZM602.549,136.939C604.479,136.939 607.029,137.329 607.039,139.579C607.039,141.899 604.539,142.399 602.759,142.399C602.189,142.399 601.309,142.399 601.109,142.369C601.069,141.769 601.039,141.119 601.039,140.319C601.039,139.219 601.099,138.089 601.099,136.959L602.559,136.939L602.549,136.939ZM618.249,134.569C617.239,137.289 611.679,149.469 610.729,151.589L615.589,151.589C615.999,150.399 616.429,149.289 616.939,147.879C617.859,147.839 618.679,147.809 619.809,147.809C620.979,147.809 621.869,147.809 622.719,147.839C623.549,149.989 623.989,150.909 624.209,151.569L629.789,151.569C628.489,148.829 622.849,136.579 622.219,134.559L618.249,134.559L618.249,134.569ZM621.769,145.269C621.019,145.299 620.599,145.329 619.809,145.329C619.239,145.329 618.389,145.299 617.759,145.279C618.269,143.849 619.259,141.619 619.739,140.149C620.179,141.579 621.109,143.619 621.769,145.269M631.789,134.549C632.039,136.299 632.069,139.769 632.079,142.639C632.079,146.029 632.029,149.059 631.759,151.559L637.429,151.559C637.159,148.979 637.149,144.099 637.149,142.629C637.149,141.489 637.169,138.989 637.249,136.899C637.639,136.879 638.709,136.879 639.279,136.879C640.549,136.879 643.149,137.529 643.149,139.779C643.149,142.129 641.029,143.279 638.599,142.959C640.619,145.969 642.679,149.509 643.759,151.539L649.849,151.539C649.019,150.639 644.889,145.299 644.369,144.409C646.839,143.429 648.409,141.909 648.409,139.809C648.409,135.849 643.939,134.529 640.229,134.539L631.799,134.539L631.789,134.549ZM652.129,134.509C652.249,136.449 652.349,141.019 652.349,142.629C652.349,144.059 652.339,148.949 652.049,151.519L657.678,151.519C657.448,149.179 657.438,144.119 657.438,142.619C657.438,140.979 657.518,136.429 657.648,134.499L652.129,134.499L652.129,134.509ZM661.318,134.489C661.548,136.699 661.588,140.259 661.598,142.579C661.598,146.119 661.538,149.299 661.328,151.499L670.578,151.479C674.608,151.479 678.908,150.279 678.908,146.739C678.908,144.739 677.368,143.179 674.678,142.209C676.688,141.519 678.058,140.069 678.058,138.509C678.058,135.589 674.598,134.459 671.458,134.459L661.338,134.479L661.318,134.489ZM668.848,136.629C671.308,136.629 672.788,137.299 672.788,138.959C672.788,140.489 671.188,141.119 669.978,141.119L668.938,141.119L667.968,143.709L669.398,143.709C671.768,143.709 673.568,144.619 673.568,146.569C673.568,148.339 672.188,149.199 669.278,149.199L666.828,149.199C666.678,146.769 666.678,145.639 666.678,142.579C666.678,140.059 666.718,138.979 666.808,136.759C667.208,136.689 668.028,136.639 668.858,136.639M687.048,134.449C686.068,137.169 680.478,149.349 679.548,151.469L684.398,151.469C684.798,150.279 685.248,149.169 685.748,147.769C686.658,147.729 687.488,147.699 688.628,147.699C689.798,147.699 690.678,147.699 691.518,147.729C692.348,149.879 692.788,150.799 693.018,151.459L698.608,151.459C697.298,148.719 691.668,136.469 691.028,134.449L687.038,134.449L687.048,134.449ZM690.578,145.149C689.808,145.169 689.418,145.209 688.628,145.209C688.048,145.209 687.198,145.179 686.568,145.159C687.058,143.729 688.088,141.499 688.548,140.029C688.998,141.459 689.908,143.499 690.578,145.149M707.348,133.969C702.868,133.969 699.838,135.739 699.848,138.759C699.848,144.269 709.528,143.949 709.528,147.189C709.528,148.339 708.548,148.939 707.228,148.939C705.578,148.939 703.688,148.399 700.118,146.729L700.118,150.859C701.648,151.419 703.858,151.889 706.188,151.889C711.398,151.889 714.518,149.749 714.508,146.409C714.508,141.269 704.818,141.239 704.808,138.389C704.808,137.809 704.938,137.049 706.858,137.039C709.278,137.039 711.118,137.949 712.978,139.019L712.978,134.709C711.648,134.289 709.528,133.979 707.338,133.979" style="fill:rgb(29,29,27);fill-rule:nonzero;"/>
            </g>
        </g>
    </g>
</svg>
